# xmcd CD database file
#
# Track frame offsets:
#	150
#	12476
#	26747
#	39665
#	51958
#	65788
#	79226
#	93455
#	107515
#	129631
#	144383
#	160282
#	173637
#	189489
#	204423
#	219090
#	250997
#	294568
#	311279
#	326195
#	340504
#
# Disc length: 4719 seconds
#
# Revision: 1
# Processed by: cddbd v1.5.2PL0 Copyright (c) Steve Scherf et al.
# Submitted via: CDex 1.81
#
DISCID=30126d15
DTITLE=Various Artist - JazzPiano History - [CD 13) Modern Jazz
DYEAR=1900
DGENRE=Jazz
TTITLE0=Lennie Tristano Trio - Out On A LImb
TTITLE1=Lennie Tristano Trio - Interlude
TTITLE2=Lennie Tristano Trio - Coolin' Off With Ulanov
TTITLE3=The Metronome All-Stars - Victory Ball
TTITLE4=Lennie Tristano Quintet - Subconscious Lee
TTITLE5=Lennie Tristano Sextette - Crosscurrent
TTITLE6=Lennie Tristano Sextette - Marionette 
TTITLE7=Lennie Tristano Sextette - Disgression
TTITLE8=Lennie Tristano - Requiem
TTITLE9=John Lewis and Miles Davis Nonet - Rouge
TTITLE10=John Lewis and Zoot Sims Quartet - Dancing In The Dark
TTITLE11=John Lewis and Milt Jackson Quartet - D And E
TTITLE12=John Lewis and Milt Jackson Quartet - Softly As In A Morning Sunrise
TTITLE13=John Lewis and Modern Jazz Quartet - All The Things You Are
TTITLE14=John Lewis and Modern Jazz Quartet - Vendome
TTITLE15=John Lewis and Modern Jazz Quartet - Django
TTITLE16=John Lewis and Modern Jazz Quartet - La Ronde Suite Part 1-4
TTITLE17=John Lewis and Modern Jazz Quartet - Concorde
TTITLE18=Claude Williamson and Barney Kessel Quintet - On A Slow Boat To China
TTITLE19=Claude Williamson and Art Pepper Quintet - Cinnamon
TTITLE20=Claude Williamson and Art Pepper Quintet - Straight Life
EXTD=
EXTT0=
EXTT1=
EXTT2=
EXTT3=
EXTT4=
EXTT5=
EXTT6=
EXTT7=
EXTT8=
EXTT9=
EXTT10=
EXTT11=
EXTT12=
EXTT13=
EXTT14=
EXTT15=
EXTT16=
EXTT17=
EXTT18=
EXTT19=
EXTT20=
PLAYORDER=
